<svg aria-hidden="true" style="position: absolute; width: 0; height: 0; overflow: hidden;" version="1.1" xmlns="http://www.w3.org/2000/svg" xmlns:xlink="http://www.w3.org/1999/xlink">
<defs>
<symbol id="icon-book" viewBox="0 0 32 32">
<path fill="#95e1d3" d="M31.064 25.889l-14.471 5.988c-0.182 0.079-0.383 0.123-0.594 0.123s-0.412-0.044-0.594-0.123l-14.471-5.988c-0.548-0.223-0.935-0.761-0.935-1.389v-23c0-0.829 0.672-1.5 1.5-1.5 0.203 0 0.397 0.040 0.573 0.114h0l0.002 0.001c0.004 0.001 0.009 0.004 0.013 0.005l13.911 5.756 13.911-5.756c0.004-0.002 0.009-0.004 0.013-0.005l0.003-0.001c0.177-0.073 0.37-0.114 0.573-0.114 0.828 0 1.5 0.671 1.5 1.5v23c0 0.628-0.387 1.166-0.936 1.389zM14.5 8.503l-11.5-4.759v19.753l11.5 4.759v-19.753zM29 3.744l-11.5 4.759v19.753l11.5-4.759v-19.753zM19.879 10.634l5.5-2.5c0.189-0.086 0.399-0.135 0.621-0.135 0.828 0 1.5 0.672 1.5 1.5 0 0.607-0.361 1.13-0.879 1.366l-5.5 2.5c-0.189 0.086-0.399 0.135-0.621 0.135-0.828 0-1.5-0.672-1.5-1.5 0-0.607 0.361-1.13 0.879-1.366zM19.879 16.134l5.5-2.5c0.189-0.086 0.399-0.134 0.621-0.134 0.828 0 1.5 0.671 1.5 1.5 0 0.607-0.361 1.13-0.879 1.366l-5.5 2.5c-0.189 0.086-0.399 0.135-0.621 0.135-0.828 0-1.5-0.672-1.5-1.5 0-0.607 0.361-1.129 0.879-1.366zM19.879 21.634l5.5-2.5c0.189-0.086 0.399-0.135 0.621-0.135 0.828 0 1.5 0.672 1.5 1.5 0 0.607-0.361 1.13-0.879 1.366l-5.5 2.5c-0.189 0.086-0.399 0.135-0.621 0.135-0.828 0-1.5-0.672-1.5-1.5 0-0.607 0.361-1.13 0.879-1.366zM6 8c0.221 0 0.431 0.048 0.621 0.135l5.5 2.5c0.519 0.236 0.879 0.759 0.879 1.366 0 0.829-0.672 1.5-1.5 1.5-0.221 0-0.431-0.048-0.621-0.135l-5.5-2.5c-0.519-0.236-0.879-0.759-0.879-1.366 0-0.828 0.672-1.5 1.5-1.5zM6 13.5c0.221 0 0.431 0.048 0.621 0.134l5.5 2.5c0.519 0.236 0.879 0.758 0.879 1.366 0 0.828-0.672 1.5-1.5 1.5-0.221 0-0.431-0.048-0.621-0.135v0.001l-5.5-2.5c-0.519-0.236-0.879-0.758-0.879-1.366 0-0.829 0.672-1.5 1.5-1.5zM6 19c0.221 0 0.431 0.048 0.621 0.135l5.5 2.5c0.519 0.236 0.879 0.759 0.879 1.366 0 0.828-0.672 1.5-1.5 1.5-0.221 0-0.431-0.048-0.621-0.135l-5.5-2.5c-0.519-0.236-0.879-0.759-0.879-1.366 0-0.828 0.672-1.5 1.5-1.5z"></path>
</symbol>
<symbol id="icon-chart" viewBox="0 0 32 32">
<path fill="#95e1d3" d="M30.5 32h-29c-0.828 0-1.5-0.672-1.5-1.5v-29c0-0.828 0.672-1.5 1.5-1.5h29c0.829 0 1.5 0.672 1.5 1.5v29c0 0.829-0.672 1.5-1.5 1.5zM29 3h-26v26h26v-26zM5.215 16.238l-0.001-0.001 4.001-2.499c0.228-0.141 0.497-0.222 0.784-0.222 0.311 0 0.601 0.095 0.84 0.258l0.006-0.009 6.631 4.42 7.638-5.391c0.248-0.182 0.554-0.289 0.885-0.289 0.828 0 1.5 0.671 1.5 1.5 0 0.5-0.245 0.943-0.622 1.215l0 0.001-8.5 6c-0.247 0.179-0.55 0.284-0.878 0.284-0.321 0-0.618-0.101-0.861-0.273l-6.656-4.438-3.136 1.96c-0.241 0.165-0.533 0.262-0.847 0.262-0.828 0-1.5-0.672-1.5-1.5 0-0.541 0.286-1.015 0.715-1.279z"></path>
</symbol>
<symbol id="icon-clock" viewBox="0 0 32 32">
<path fill="#95e1d3" d="M30.74 10.003c-1.583-3.696-4.546-6.66-8.242-8.243 0.999-0.787 2.257-1.26 3.628-1.26 3.244 0 5.874 2.63 5.874 5.874 0 1.371-0.473 2.629-1.26 3.629zM30.5 16.5c0 3.852-1.512 7.343-3.962 9.94l2.028 2.028c0.268 0.269 0.434 0.64 0.434 1.049 0 0.819-0.664 1.483-1.483 1.483-0.41 0-0.78-0.166-1.049-0.434l-2.178-2.179c-2.351 1.643-5.205 2.613-8.29 2.613-3.079 0-5.928-0.966-8.276-2.603l-2.163 2.164c-0.272 0.271-0.646 0.439-1.061 0.439-0.828 0-1.5-0.672-1.5-1.5 0-0.414 0.168-0.789 0.439-1.060l2.012-2.011c-2.443-2.596-3.951-6.082-3.951-9.928 0-8.008 6.492-14.5 14.5-14.5s14.5 6.492 14.5 14.5zM16 5c-6.351 0-11.5 5.149-11.5 11.5s5.149 11.5 11.5 11.5c6.351 0 11.5-5.149 11.5-11.5s-5.149-11.5-11.5-11.5zM22 18h-6c-0.828 0-1.5-0.672-1.5-1.5v-8c0-0.828 0.672-1.5 1.5-1.5s1.5 0.672 1.5 1.5v6.5h4.5c0.828 0 1.5 0.672 1.5 1.5s-0.672 1.5-1.5 1.5zM1.287 10.205c-0.804-1.020-1.287-2.305-1.287-3.706 0-3.314 2.686-6 6-6 1.4 0 2.685 0.483 3.706 1.287-3.775 1.617-6.802 4.644-8.419 8.419z"></path>
</symbol>
<symbol id="icon-frame" viewBox="0 0 32 32">
<path fill="#95e1d3" d="M30.5 32h-29c-0.829 0-1.5-0.672-1.5-1.5v-29c0-0.829 0.672-1.5 1.5-1.5h29c0.828 0 1.5 0.671 1.5 1.5v29c0 0.828-0.672 1.5-1.5 1.5zM29 3h-26v26h26v-26zM6.5 4.5h5.5c0.828 0 1.5 0.672 1.5 1.5s-0.671 1.5-1.5 1.5h-4.5v4.5c0 0.829-0.672 1.5-1.5 1.5s-1.5-0.672-1.5-1.5v-7.5h2zM4.5 20c0-0.828 0.672-1.5 1.5-1.5s1.5 0.672 1.5 1.5v4.5l4.5 0.001c0.828 0 1.5 0.671 1.5 1.5s-0.671 1.5-1.5 1.5h-7.5v-7.5zM20 4.5h7.5v7.5c0 0.829-0.672 1.5-1.5 1.5s-1.5-0.672-1.5-1.5v-4.5h-4.5c-0.828 0-1.5-0.671-1.5-1.5s0.672-1.5 1.5-1.5zM20 24.5v-0.001h4.5v-4.5c0-0.828 0.672-1.5 1.5-1.5s1.5 0.672 1.5 1.5v7.5h-7.5c-0.829 0-1.5-0.672-1.5-1.5s0.671-1.5 1.5-1.5z"></path>
</symbol>
<symbol id="icon-home" viewBox="0 0 32 32">
<path fill="#95e1d3" d="M32 17c0 0.829-0.671 1.5-1.5 1.5-0.395 0-0.752-0.156-1.020-0.405l-0.004 0.003-13.477-13.476-13.447 13.446c-0.271 0.267-0.643 0.431-1.053 0.431-0.829 0-1.5-0.671-1.5-1.5 0-0.425 0.177-0.808 0.461-1.081l14.458-14.458c0.273-0.284 0.656-0.461 1.081-0.461 0 0 0 0 0.001 0 0.027 0 0.053 0.001 0.079 0.002 0.004 0 0.008 0.001 0.012 0.001 0.023 0.002 0.045 0.003 0.067 0.006 0.001 0 0.003 0 0.004 0.001 0.367 0.040 0.694 0.212 0.933 0.468l0.001-0.001 5.902 5.902v-1.378c0-0.829 0.671-1.5 1.5-1.5s1.5 0.672 1.5 1.5v4.378l5.598 5.598-0.003 0.004c0.25 0.268 0.405 0.625 0.405 1.020zM29 19.5v10.5c0 0.828-0.672 1.5-1.5 1.5h-3v-12h-6v12h-14c-0.828 0-1.5-0.672-1.5-1.5v-10.5l13-13 13 13zM13.5 19.5h-6v6h6v-6z"></path>
</symbol>
<symbol id="icon-monitor" viewBox="0 0 32 32">
<path fill="#95e1d3" d="M30 25h-9.5v2.5l2 2v0.5h-13v-0.5l2-2v-2.5h-9.5c-0.828 0-1.5-0.672-1.5-1.5v-20c0-0.828 0.672-1.5 1.5-1.5h28c0.828 0 1.5 0.671 1.5 1.5v20c0 0.829-0.672 1.5-1.5 1.5zM29.5 4h-27v17h27v-17zM13 11c0.414 0 0.789 0.168 1.061 0.439l0.939 0.939 2.939-2.939c0.271-0.272 0.646-0.439 1.061-0.439 0.828 0 1.5 0.671 1.5 1.5 0 0.414-0.168 0.789-0.439 1.061l-4 4c-0.271 0.271-0.646 0.439-1.061 0.439s-0.789-0.168-1.061-0.439l-2-2c-0.271-0.271-0.439-0.647-0.439-1.060 0-0.829 0.672-1.5 1.5-1.5z"></path>
</symbol>
<symbol id="icon-search" viewBox="0 0 32 32">
<path d="M30.785 26.636c0.531 0.531 0.859 1.264 0.859 2.075 0 1.62-1.313 2.933-2.933 2.933-0.81 0-1.543-0.328-2.074-0.859l-8.597-8.597c-1.746 1.032-3.776 1.634-5.951 1.634-6.48 0-11.733-5.253-11.733-11.733s5.253-11.733 11.733-11.733c6.48 0 11.733 5.254 11.733 11.733 0 2.175-0.602 4.205-1.634 5.951l8.597 8.597zM12.089 3.288c-4.86 0-8.8 3.94-8.8 8.8s3.94 8.8 8.8 8.8c4.86 0 8.8-3.94 8.8-8.8s-3.94-8.8-8.8-8.8z"></path>
</symbol>
<symbol id="icon-shop" viewBox="0 0 32 32">
<path d="M31.513 9.178l0.002 0.001-4.4 9.777c-0.217 0.482-0.686 0.825-1.24 0.861l-12.671 0.844 0.732 2.092h13.797c1.62 0 2.933 1.314 2.933 2.934s-1.313 2.933-2.933 2.933c-1.62 0-2.933-1.313-2.933-2.933h-13.689c0 1.62-1.313 2.933-2.933 2.933s-2.933-1.313-2.933-2.933c0-1.62 1.313-2.934 2.933-2.934h2.651l-5.647-16.133h-3.36c-0.81 0-1.467-0.657-1.467-1.467s0.657-1.467 1.467-1.467h4.4c0.64 0 1.179 0.412 1.379 0.984l0.005-0.002 0.854 2.441h21.717c0.81 0 1.467 0.656 1.467 1.467 0 0.214-0.049 0.416-0.131 0.601zM9.487 10.044l2.711 7.746 12.603-0.84 3.108-6.906h-18.422z"></path>
</symbol>
<symbol id="icon-facebook" viewBox="0 0 32 32">
<path  d="M18.422 11.142h1.328v-2.313c-0.229-0.031-1.017-0.102-1.935-0.102-1.915 0-3.226 1.204-3.226 3.418v2.037h-2.113v2.585h2.113v6.505h2.59v-6.505h2.027l0.322-2.585h-2.35v-1.781c0.001-0.747 0.202-1.259 1.243-1.259v0z"></path>
</symbol>
<symbol id="icon-instagram" viewBox="0 0 32 32">
<path  d="M23.258 13.004c-0.034-0.773-0.159-1.304-0.338-1.765-0.185-0.489-0.469-0.926-0.841-1.29-0.364-0.369-0.804-0.656-1.287-0.838-0.463-0.179-0.992-0.304-1.764-0.338-0.779-0.037-1.026-0.046-3.001-0.046s-2.222 0.009-2.998 0.043c-0.773 0.034-1.304 0.159-1.764 0.338-0.489 0.185-0.926 0.469-1.29 0.841-0.369 0.364-0.656 0.804-0.838 1.287-0.179 0.463-0.304 0.992-0.338 1.764-0.037 0.779-0.045 1.026-0.045 3.001s0.008 2.222 0.043 2.998c0.034 0.773 0.159 1.304 0.338 1.765 0.185 0.489 0.472 0.926 0.841 1.29 0.364 0.369 0.804 0.656 1.287 0.838 0.463 0.179 0.992 0.304 1.765 0.338 0.776 0.034 1.023 0.043 2.998 0.043s2.222-0.008 2.998-0.043c0.773-0.034 1.304-0.159 1.764-0.338 0.978-0.378 1.75-1.151 2.128-2.128 0.179-0.463 0.304-0.992 0.338-1.765 0.034-0.776 0.043-1.023 0.043-2.998s-0.003-2.222-0.037-2.998zM21.949 18.942c-0.031 0.71-0.151 1.094-0.25 1.35-0.244 0.634-0.747 1.137-1.381 1.381-0.256 0.099-0.642 0.219-1.35 0.25-0.767 0.034-0.997 0.043-2.938 0.043s-2.174-0.008-2.938-0.043c-0.71-0.031-1.094-0.15-1.35-0.25-0.315-0.116-0.602-0.301-0.835-0.543-0.242-0.236-0.426-0.52-0.543-0.835-0.099-0.256-0.219-0.642-0.25-1.35-0.034-0.767-0.043-0.997-0.043-2.938s0.008-2.174 0.043-2.938c0.031-0.71 0.151-1.094 0.25-1.35 0.117-0.315 0.301-0.602 0.546-0.835 0.236-0.242 0.52-0.426 0.835-0.543 0.256-0.099 0.642-0.219 1.35-0.25 0.767-0.034 0.997-0.043 2.938-0.043 1.944 0 2.174 0.008 2.938 0.043 0.71 0.031 1.094 0.151 1.35 0.25 0.315 0.116 0.602 0.301 0.835 0.543 0.241 0.236 0.426 0.52 0.543 0.835 0.099 0.256 0.219 0.642 0.25 1.35 0.034 0.767 0.043 0.997 0.043 2.938s-0.009 2.168-0.043 2.935z"></path>
<path  d="M16.027 12.265c-2.063 0-3.736 1.674-3.736 3.736s1.674 3.736 3.736 3.736c2.063 0 3.737-1.674 3.737-3.736s-1.674-3.736-3.737-3.736zM16.027 18.425c-1.338 0-2.424-1.085-2.424-2.424s1.086-2.424 2.424-2.424c1.338 0 2.424 1.085 2.424 2.424s-1.085 2.424-2.424 2.424v0z"></path>
<path  d="M20.784 12.117c0 0.482-0.391 0.872-0.872 0.872s-0.872-0.391-0.872-0.872c0-0.482 0.391-0.872 0.872-0.872s0.872 0.39 0.872 0.872v0z"></path>
</symbol>
<symbol id="icon-pinterest" viewBox="8 -20 12 75">
<path d="M11.139 20.743c-0.257 1.026-0.516 2.1-0.785 3.151-0.265 1.036-0.498 2.087-0.883 3.039-0.639 1.577-1.45 3.101-2.515 4.334-0.707 0.821-0.557 0.493-0.77 0.449-0.162-0.034-0.177-0.193-0.209-0.424-0.173-1.254-0.055-2.702 0.009-4.11 0.073-1.604 0.411-2.939 0.724-4.272 0.596-2.54 1.165-5.030 1.766-7.586 0.040-0.17 0.148-0.451 0.111-0.548-0.273-0.71-0.45-1.348-0.527-2.093-0.090-0.856-0.021-1.654 0.172-2.392 0.34-1.302 1.123-2.456 2.331-2.878 0.768-0.266 1.618-0.146 2.135 0.163 0.532 0.318 0.897 0.82 1.067 1.532 0.182 0.758 0.048 1.663-0.098 2.329-0.329 1.499-0.761 2.625-1.153 4.073-0.195 0.718-0.415 1.455-0.233 2.23 0.167 0.712 0.538 1.202 1.043 1.569 0.524 0.382 1.144 0.59 1.999 0.561 1.511-0.053 2.561-1.019 3.264-1.93 1.123-1.458 1.803-3.426 2.061-5.768 0.083-0.755 0.144-1.623 0.086-2.479-0.107-1.58-0.602-2.851-1.386-3.836-0.746-0.938-1.805-1.685-3.091-2.105-1.276-0.417-3.043-0.555-4.613-0.287-2.852 0.489-4.864 2.11-6.048 4.348-0.621 1.172-1.030 2.52-1.030 4.197 0 1.293 0.319 2.295 0.834 3.077 0.163 0.248 0.404 0.452 0.564 0.735 0.227 0.401-0.035 0.998-0.147 1.433-0.135 0.523-0.149 1.246-0.76 1.258-0.253 0.004-0.571-0.181-0.785-0.299-1.606-0.888-2.581-2.502-2.981-4.596-0.243-1.272-0.243-2.756 0-3.986 0.234-1.189 0.671-2.287 1.153-3.177 1.002-1.849 2.47-3.328 4.257-4.385 1.374-0.813 2.924-1.382 4.809-1.657 0.626-0.092 1.273-0.129 1.975-0.162 2.053-0.097 3.92 0.368 5.324 0.996 1.483 0.663 2.667 1.546 3.668 2.641 1.031 1.126 1.782 2.436 2.258 4.073 0.248 0.852 0.489 1.763 0.489 2.815 0 1.056-0.223 1.985-0.379 2.915-0.584 3.481-2.239 6.327-4.723 7.948-0.603 0.392-1.331 0.755-2.159 0.996-0.821 0.239-1.757 0.418-2.76 0.349-0.974-0.067-1.771-0.332-2.441-0.71-0.665-0.376-1.224-0.836-1.62-1.532z"></path>
</symbol>
<symbol id="icon-twitter" viewBox="0 0 32 32">
<path d="M23.273 11.49c-0.541 0.237-1.117 0.394-1.718 0.471 0.618-0.369 1.090-0.949 1.312-1.648-0.576 0.344-1.213 0.586-1.891 0.722-0.547-0.583-1.327-0.944-2.178-0.944-1.651 0-2.98 1.34-2.98 2.983 0 0.236 0.020 0.464 0.069 0.68-2.479-0.121-4.673-1.309-6.146-3.119-0.257 0.446-0.408 0.957-0.408 1.507 0 1.033 0.532 1.948 1.325 2.478-0.479-0.009-0.949-0.148-1.347-0.367 0 0.009 0 0.021 0 0.033 0 1.449 1.034 2.653 2.389 2.93-0.243 0.066-0.507 0.098-0.782 0.098-0.191 0-0.384-0.011-0.565-0.051 0.386 1.181 1.483 2.049 2.786 2.077-1.015 0.794-2.303 1.272-3.697 1.272-0.245 0-0.479-0.011-0.714-0.041 1.321 0.852 2.886 1.338 4.575 1.338 5.487 0 8.487-4.545 8.487-8.485 0-0.132-0.005-0.259-0.011-0.385 0.592-0.42 1.089-0.944 1.495-1.548z"></path>
</symbol>
</defs>
</svg>
